<svg width="3826" height="600" viewBox="0 0 3826 600" fill="none" xmlns="http://www.w3.org/2000/svg">
<path d="M310.665 290C307.953 290 306.145 288.192 306.145 285.48V177.452C306.145 175.192 307.953 173.384 310.665 173.384H349.537V5.23998C349.537 2.52798 351.345 0.71998 354.057 0.71998H480.617C483.329 0.71998 485.137 2.52798 485.137 5.23998V225.816C485.137 262.88 458.017 290 420.953 290H310.665ZM492.419 226.72V64C492.419 23.32 515.019 0.71998 555.699 0.71998H707.571C748.251 0.71998 770.851 23.32 770.851 64V226.72C770.851 267.4 748.251 290 707.571 290H555.699C515.019 290 492.419 267.4 492.419 226.72ZM628.471 80.272V210.448H634.799V80.272H628.471ZM1056.44 98.804C1056.44 124.568 1044.69 139.936 1026.16 149.428L1056.44 178.808V285.48C1056.44 288.192 1054.63 290 1051.92 290H924.909C922.197 290 920.389 288.192 920.389 285.48V198.696L914.061 191.464V285.48C914.061 288.192 912.253 290 909.541 290H782.529C779.817 290 778.009 288.192 778.009 285.48V5.23998C778.009 2.52798 779.817 0.71998 782.529 0.71998H993.161C1033.84 0.71998 1056.44 23.32 1056.44 64V98.804ZM920.389 126.376V80.272H914.061V126.376H920.389ZM1063.6 5.23998C1063.6 2.52798 1065.41 0.71998 1068.12 0.71998H1278.75C1319.43 0.71998 1342.03 23.32 1342.03 64V226.72C1342.03 267.4 1319.43 290 1278.75 290H1068.12C1065.41 290 1063.6 288.192 1063.6 285.48V5.23998ZM1199.65 79.368V211.352H1205.98V79.368H1199.65ZM1577.9 0.71998C1580.61 0.71998 1582.42 1.62399 1583.32 4.33599L1627.62 181.52V285.48C1627.62 288.192 1625.81 290 1623.1 290H1496.09C1493.38 290 1491.57 288.192 1491.57 285.48V228.528H1485.24V285.48C1485.24 288.192 1483.43 290 1480.72 290H1353.71C1351 290 1349.19 288.192 1349.19 285.48V181.52L1393.94 4.33599C1394.84 1.62399 1396.65 0.71998 1398.91 0.71998H1577.9ZM1485.69 80.272L1484.79 163.44H1492.02L1491.12 80.272H1485.69ZM1639.3 290C1636.59 290 1634.78 288.192 1634.78 285.48V5.23998C1634.78 2.52798 1636.59 0.71998 1639.3 0.71998H1749.59C1751.39 0.71998 1753.2 1.62399 1754.56 3.88399L1807.44 101.968H1812.87L1785.29 45.92V5.23998C1785.29 2.52798 1787.1 0.71998 1789.36 0.71998H1907.79C1910.5 0.71998 1912.31 2.52798 1912.31 5.23998V285.48C1912.31 288.192 1910.5 290 1907.79 290H1797.05C1794.79 290 1793.43 289.096 1792.07 286.836L1737.83 186.04H1732.86L1761.34 244.8V285.48C1761.34 288.192 1759.53 290 1756.82 290H1639.3ZM2280.9 94.284C2280.9 118.24 2269.15 133.156 2251.52 143.1C2269.15 153.948 2280.9 170.22 2280.9 196.436V226.72C2280.9 267.4 2258.3 290 2217.62 290H2006.99C2004.28 290 2002.47 288.192 2002.47 285.48V5.23998C2002.47 2.52798 2004.28 0.71998 2006.99 0.71998H2217.62C2258.3 0.71998 2280.9 23.32 2280.9 64V94.284ZM2144.85 112.816V80.272H2138.52V112.816H2144.85ZM2144.85 210.448V177.904H2138.52V210.448H2144.85ZM2566.49 98.804C2566.49 124.568 2554.74 139.936 2536.21 149.428L2566.49 178.808V285.48C2566.49 288.192 2564.68 290 2561.97 290H2434.96C2432.25 290 2430.44 288.192 2430.44 285.48V198.696L2424.11 191.464V285.48C2424.11 288.192 2422.3 290 2419.59 290H2292.58C2289.87 290 2288.06 288.192 2288.06 285.48V5.23998C2288.06 2.52798 2289.87 0.71998 2292.58 0.71998H2503.21C2543.89 0.71998 2566.49 23.32 2566.49 64V98.804ZM2430.44 126.376V80.272H2424.11V126.376H2430.44ZM2802.36 0.71998C2805.07 0.71998 2806.88 1.62399 2807.79 4.33599L2852.08 181.52V285.48C2852.08 288.192 2850.27 290 2847.56 290H2720.55C2717.84 290 2716.03 288.192 2716.03 285.48V228.528H2709.7V285.48C2709.7 288.192 2707.89 290 2705.18 290H2578.17C2575.46 290 2573.65 288.192 2573.65 285.48V181.52L2618.4 4.33599C2619.3 1.62399 2621.11 0.71998 2623.37 0.71998H2802.36ZM2710.15 80.272L2709.25 163.44H2716.48L2715.58 80.272H2710.15ZM2863.76 290C2861.05 290 2859.24 288.192 2859.24 285.48V5.23998C2859.24 2.52798 2861.05 0.71998 2863.76 0.71998H2974.05C2975.86 0.71998 2977.66 1.62399 2979.02 3.88399L3031.9 101.968H3037.33L3009.76 45.92V5.23998C3009.76 2.52798 3011.56 0.71998 3013.82 0.71998H3132.25C3134.96 0.71998 3136.77 2.52798 3136.77 5.23998V285.48C3136.77 288.192 3134.96 290 3132.25 290H3021.51C3019.25 290 3017.89 289.096 3016.54 286.836L2962.3 186.04H2957.32L2985.8 244.8V285.48C2985.8 288.192 2983.99 290 2981.28 290H2863.76ZM3143.95 5.23998C3143.95 2.52798 3145.75 0.71998 3148.47 0.71998H3359.1C3399.78 0.71998 3422.38 23.32 3422.38 64V226.72C3422.38 267.4 3399.78 290 3359.1 290H3148.47C3145.75 290 3143.95 288.192 3143.95 285.48V5.23998ZM3280 79.368V211.352H3286.33V79.368H3280ZM3429.54 33.264C3429.54 30.552 3431.34 28.744 3434.06 28.744H3515.42C3518.13 28.744 3519.94 30.552 3519.94 33.264V114.624C3519.94 117.336 3518.13 119.144 3515.42 119.144H3434.06C3431.34 119.144 3429.54 117.336 3429.54 114.624V33.264ZM3429.54 176.548C3429.54 173.836 3431.34 172.028 3434.06 172.028H3515.42C3518.13 172.028 3519.94 173.836 3519.94 176.548V257.908C3519.94 260.62 3518.13 262.428 3515.42 262.428H3434.06C3431.34 262.428 3429.54 260.62 3429.54 257.908V176.548ZM278.903 408.804C278.903 434.568 267.151 449.936 248.619 459.428L278.903 488.808V595.48C278.903 598.192 277.095 600 274.383 600H147.371C144.659 600 142.851 598.192 142.851 595.48V508.696L136.523 501.464V595.48C136.523 598.192 134.715 600 132.003 600H4.99147C2.27947 600 0.471469 598.192 0.471469 595.48V315.24C0.471469 312.528 2.27947 310.72 4.99147 310.72H215.623C256.303 310.72 278.903 333.32 278.903 374V408.804ZM142.851 436.376V390.272H136.523V436.376H142.851ZM290.581 600C287.869 600 286.061 598.192 286.061 595.48V315.24C286.061 312.528 287.869 310.72 290.581 310.72H524.265C526.977 310.72 528.785 312.528 528.785 315.24V416.488C528.785 419.2 526.977 421.008 524.265 421.008H421.661V427.336H524.265C526.977 427.336 528.785 429.144 528.785 431.856V483.384C528.785 485.644 526.977 487.452 524.265 487.452H421.661V494.232H524.265C526.977 494.232 528.785 496.04 528.785 498.3V595.48C528.785 598.192 526.977 600 524.265 600H290.581ZM749.241 310.72C751.953 310.72 753.761 312.528 753.761 315.24V416.488C753.761 419.2 751.953 421.008 749.241 421.008H712.629V595.48C712.629 598.192 710.821 600 708.561 600H581.549C578.837 600 577.029 598.192 577.029 595.48V421.008H540.417C537.705 421.008 535.897 419.2 535.897 416.488V315.24C535.897 312.528 537.705 310.72 540.417 310.72H749.241ZM1039.45 408.804C1039.45 434.568 1027.69 449.936 1009.16 459.428L1039.45 488.808V595.48C1039.45 598.192 1037.64 600 1034.93 600H907.914C905.202 600 903.394 598.192 903.394 595.48V508.696L897.066 501.464V595.48C897.066 598.192 895.258 600 892.546 600H765.534C762.822 600 761.014 598.192 761.014 595.48V315.24C761.014 312.528 762.822 310.72 765.534 310.72H976.166C1016.85 310.72 1039.45 333.32 1039.45 374V408.804ZM903.394 436.376V390.272H897.066V436.376H903.394ZM1046.6 536.72V374C1046.6 333.32 1069.2 310.72 1109.88 310.72H1261.76C1302.44 310.72 1325.04 333.32 1325.04 374V536.72C1325.04 577.4 1302.44 600 1261.76 600H1109.88C1069.2 600 1046.6 577.4 1046.6 536.72ZM1182.66 390.272V520.448H1188.98V390.272H1182.66Z" fill="#ECEAD5"/>
<path d="M1689.09 454.908C1691.8 454.908 1693.61 456.716 1693.61 459.428V536.72C1693.61 577.4 1671.01 600 1630.33 600H1478.46C1437.78 600 1415.18 577.4 1415.18 536.72V374C1415.18 333.32 1437.78 310.72 1478.46 310.72H1630.33C1671.01 310.72 1693.61 333.32 1693.61 374V444.06C1693.61 446.772 1691.8 448.58 1689.09 448.58H1562.08C1559.37 448.58 1557.56 446.772 1557.56 444.06V390.272H1551.23V520.448H1557.56V459.428C1557.56 456.716 1559.37 454.908 1562.08 454.908H1689.09ZM1700.77 536.72V374C1700.77 333.32 1723.37 310.72 1764.05 310.72H1915.92C1956.6 310.72 1979.2 333.32 1979.2 374V536.72C1979.2 577.4 1956.6 600 1915.92 600H1764.05C1723.37 600 1700.77 577.4 1700.77 536.72ZM1836.82 390.272V520.448H1843.15V390.272H1836.82ZM2165.35 595.48C2165.35 598.192 2163.54 600 2160.83 600H1990.88C1988.17 600 1986.36 598.192 1986.36 595.48V315.24C1986.36 312.528 1988.17 310.72 1990.88 310.72H2117.44C2120.15 310.72 2121.96 312.528 2121.96 315.24V489.712H2160.83C2163.54 489.712 2165.35 491.52 2165.35 494.232V595.48ZM2351.62 595.48C2351.62 598.192 2349.82 600 2347.1 600H2177.15C2174.44 600 2172.63 598.192 2172.63 595.48V315.24C2172.63 312.528 2174.44 310.72 2177.15 310.72H2303.71C2306.42 310.72 2308.23 312.528 2308.23 315.24V489.712H2347.1C2349.82 489.712 2351.62 491.52 2351.62 494.232V595.48ZM2363.43 600C2360.71 600 2358.91 598.192 2358.91 595.48V315.24C2358.91 312.528 2360.71 310.72 2363.43 310.72H2597.11C2599.82 310.72 2601.63 312.528 2601.63 315.24V416.488C2601.63 419.2 2599.82 421.008 2597.11 421.008H2494.51V427.336H2597.11C2599.82 427.336 2601.63 429.144 2601.63 431.856V483.384C2601.63 485.644 2599.82 487.452 2597.11 487.452H2494.51V494.232H2597.11C2599.82 494.232 2601.63 496.04 2601.63 498.3V595.48C2601.63 598.192 2599.82 600 2597.11 600H2363.43ZM2882.65 454.908C2885.37 454.908 2887.17 456.716 2887.17 459.428V536.72C2887.17 577.4 2864.57 600 2823.89 600H2672.02C2631.34 600 2608.74 577.4 2608.74 536.72V374C2608.74 333.32 2631.34 310.72 2672.02 310.72H2823.89C2864.57 310.72 2887.17 333.32 2887.17 374V444.06C2887.17 446.772 2885.37 448.58 2882.65 448.58H2755.64C2752.93 448.58 2751.12 446.772 2751.12 444.06V390.272H2744.79V520.448H2751.12V459.428C2751.12 456.716 2752.93 454.908 2755.64 454.908H2882.65ZM3107.67 310.72C3110.39 310.72 3112.19 312.528 3112.19 315.24V416.488C3112.19 419.2 3110.39 421.008 3107.67 421.008H3071.06V595.48C3071.06 598.192 3069.25 600 3066.99 600H2939.98C2937.27 600 2935.46 598.192 2935.46 595.48V421.008H2898.85C2896.14 421.008 2894.33 419.2 2894.33 416.488V315.24C2894.33 312.528 2896.14 310.72 2898.85 310.72H3107.67ZM3119.45 315.24C3119.45 312.528 3121.26 310.72 3123.97 310.72H3250.53C3253.24 310.72 3255.05 312.528 3255.05 315.24V595.48C3255.05 598.192 3253.24 600 3250.53 600H3123.97C3121.26 600 3119.45 598.192 3119.45 595.48V315.24ZM3262.46 536.72V374C3262.46 333.32 3285.06 310.72 3325.74 310.72H3477.62C3518.3 310.72 3540.9 333.32 3540.9 374V536.72C3540.9 577.4 3518.3 600 3477.62 600H3325.74C3285.06 600 3262.46 577.4 3262.46 536.72ZM3398.52 390.272V520.448H3404.84V390.272H3398.52ZM3552.57 600C3549.86 600 3548.05 598.192 3548.05 595.48V315.24C3548.05 312.528 3549.86 310.72 3552.57 310.72H3662.86C3664.67 310.72 3666.48 311.624 3667.83 313.884L3720.72 411.968H3726.14L3698.57 355.92V315.24C3698.57 312.528 3700.38 310.72 3702.64 310.72H3821.06C3823.77 310.72 3825.58 312.528 3825.58 315.24V595.48C3825.58 598.192 3823.77 600 3821.06 600H3710.32C3708.06 600 3706.71 599.096 3705.35 596.836L3651.11 496.04H3646.14L3674.61 554.8V595.48C3674.61 598.192 3672.81 600 3670.09 600H3552.57Z" fill="#D90429"/>
</svg>
