<svg width="3787" height="455" viewBox="0 0 3787 455" fill="none" xmlns="http://www.w3.org/2000/svg">
<path d="M430.94 227.09C435.2 227.09 438.04 229.93 438.04 234.19V355.6C438.04 419.5 402.54 455 338.64 455H100.08C36.18 455 0.68 419.5 0.68 355.6V100C0.68 36.1 36.18 0.599968 100.08 0.599968H338.64C402.54 0.599968 438.04 36.1 438.04 100V210.05C438.04 214.31 435.2 217.15 430.94 217.15H231.43C227.17 217.15 224.33 214.31 224.33 210.05V125.56H214.39V330.04H224.33V234.19C224.33 229.93 227.17 227.09 231.43 227.09H430.94ZM449.284 355.6V100C449.284 36.1 484.784 0.599968 548.684 0.599968H787.244C851.144 0.599968 886.644 36.1 886.644 100V355.6C886.644 419.5 851.144 455 787.244 455H548.684C484.784 455 449.284 419.5 449.284 355.6ZM662.994 125.56V330.04H672.934V125.56H662.994ZM1179.05 447.9C1179.05 452.16 1176.21 455 1171.95 455H904.987C900.727 455 897.887 452.16 897.887 447.9V7.69996C897.887 3.43997 900.727 0.599968 904.987 0.599968H1103.79C1108.05 0.599968 1110.89 3.43997 1110.89 7.69996V281.76H1171.95C1176.21 281.76 1179.05 284.6 1179.05 288.86V447.9ZM1471.64 447.9C1471.64 452.16 1468.8 455 1464.54 455H1197.58C1193.32 455 1190.48 452.16 1190.48 447.9V7.69996C1190.48 3.43997 1193.32 0.599968 1197.58 0.599968H1396.38C1400.64 0.599968 1403.48 3.43997 1403.48 7.69996V281.76H1464.54C1468.8 281.76 1471.64 284.6 1471.64 288.86V447.9ZM1490.18 455C1485.92 455 1483.08 452.16 1483.08 447.9V7.69996C1483.08 3.43997 1485.92 0.599968 1490.18 0.599968H1857.25C1861.51 0.599968 1864.35 3.43997 1864.35 7.69996V166.74C1864.35 171 1861.51 173.84 1857.25 173.84H1696.08V183.78H1857.25C1861.51 183.78 1864.35 186.62 1864.35 190.88V271.82C1864.35 275.37 1861.51 278.21 1857.25 278.21H1696.08V288.86H1857.25C1861.51 288.86 1864.35 291.7 1864.35 295.25V447.9C1864.35 452.16 1861.51 455 1857.25 455H1490.18ZM2305.78 227.09C2310.04 227.09 2312.88 229.93 2312.88 234.19V355.6C2312.88 419.5 2277.38 455 2213.48 455H1974.92C1911.02 455 1875.52 419.5 1875.52 355.6V100C1875.52 36.1 1911.02 0.599968 1974.92 0.599968H2213.48C2277.38 0.599968 2312.88 36.1 2312.88 100V210.05C2312.88 214.31 2310.04 217.15 2305.78 217.15H2106.27C2102.01 217.15 2099.17 214.31 2099.17 210.05V125.56H2089.23V330.04H2099.17V234.19C2099.17 229.93 2102.01 227.09 2106.27 227.09H2305.78ZM2659.25 0.599968C2663.51 0.599968 2666.35 3.43997 2666.35 7.69996V166.74C2666.35 171 2663.51 173.84 2659.25 173.84H2601.74V447.9C2601.74 452.16 2598.9 455 2595.35 455H2395.84C2391.58 455 2388.74 452.16 2388.74 447.9V173.84H2331.23C2326.97 173.84 2324.13 171 2324.13 166.74V7.69996C2324.13 3.43997 2326.97 0.599968 2331.23 0.599968H2659.25ZM2677.74 7.69996C2677.74 3.43997 2680.58 0.599968 2684.84 0.599968H2883.64C2887.9 0.599968 2890.74 3.43997 2890.74 7.69996V447.9C2890.74 452.16 2887.9 455 2883.64 455H2684.84C2680.58 455 2677.74 452.16 2677.74 447.9V7.69996ZM2902.39 355.6V100C2902.39 36.1 2937.89 0.599968 3001.79 0.599968H3240.35C3304.25 0.599968 3339.75 36.1 3339.75 100V355.6C3339.75 419.5 3304.25 455 3240.35 455H3001.79C2937.89 455 2902.39 419.5 2902.39 355.6ZM3116.1 125.56V330.04H3126.04V125.56H3116.1ZM3358.09 455C3353.83 455 3350.99 452.16 3350.99 447.9V7.69996C3350.99 3.43997 3353.83 0.599968 3358.09 0.599968H3531.33C3534.17 0.599968 3537.01 2.01999 3539.14 5.56999L3622.21 159.64H3630.73L3587.42 71.6V7.69996C3587.42 3.43997 3590.26 0.599968 3593.81 0.599968H3779.83C3784.09 0.599968 3786.93 3.43997 3786.93 7.69996V447.9C3786.93 452.16 3784.09 455 3779.83 455H3605.88C3602.33 455 3600.2 453.58 3598.07 450.03L3512.87 291.7H3505.06L3549.79 384V447.9C3549.79 452.16 3546.95 455 3542.69 455H3358.09Z" fill="#ECEAD5"/>
</svg>
