<svg width="439" height="455" viewBox="0 0 439 455" fill="none" xmlns="http://www.w3.org/2000/svg">
<path d="M430.94 227.09C435.2 227.09 438.04 229.93 438.04 234.19V355.6C438.04 419.5 402.54 455 338.64 455H100.08C36.18 455 0.68 419.5 0.68 355.6V100C0.68 36.1 36.18 0.599968 100.08 0.599968H338.64C402.54 0.599968 438.04 36.1 438.04 100V210.05C438.04 214.31 435.2 217.15 430.94 217.15H231.43C227.17 217.15 224.33 214.31 224.33 210.05V125.56H214.39V330.04H224.33V234.19C224.33 229.93 227.17 227.09 231.43 227.09H430.94Z" fill="#D90429"/>
</svg>
